<svg width="16" height="17" viewBox="0 0 16 17" fill="none" xmlns="http://www.w3.org/2000/svg">
<g id="phone">
<path id="Vector" d="M14.6669 11.78V13.78C14.6677 13.9657 14.6297 14.1495 14.5553 14.3196C14.4809 14.4897 14.3718 14.6424 14.235 14.7679C14.0982 14.8934 13.9367 14.989 13.7608 15.0485C13.5849 15.108 13.3985 15.1301 13.2136 15.1133C11.1622 14.8904 9.19161 14.1894 7.46028 13.0667C5.8495 12.0431 4.48384 10.6775 3.46028 9.06668C2.3336 7.32748 1.63244 5.34734 1.41361 3.28668C1.39695 3.10233 1.41886 2.91652 1.47795 2.7411C1.53703 2.56567 1.63199 2.40447 1.75679 2.26776C1.88159 2.13105 2.03348 2.02182 2.20281 1.94703C2.37213 1.87224 2.55517 1.83352 2.74028 1.83335H4.74028C5.06382 1.83016 5.37748 1.94473 5.62279 2.1557C5.8681 2.36667 6.02833 2.65964 6.07361 2.98001C6.15803 3.62006 6.31458 4.2485 6.54028 4.85335C6.62998 5.09196 6.64939 5.35129 6.59622 5.6006C6.54305 5.84991 6.41952 6.07875 6.24028 6.26001L5.39361 7.10668C6.34265 8.77571 7.72458 10.1576 9.39361 11.1067L10.2403 10.26C10.4215 10.0808 10.6504 9.95725 10.8997 9.90408C11.149 9.85091 11.4083 9.87032 11.6469 9.96001C12.2518 10.1857 12.8802 10.3423 13.5203 10.4267C13.8441 10.4724 14.1399 10.6355 14.3513 10.885C14.5627 11.1345 14.6751 11.4531 14.6669 11.78Z" fill="#2F915C"/>
</g>
</svg>
